<?xml version="1.0" standalone="no"?>
<!DOCTYPE svg PUBLIC "-//W3C//DTD SVG 20010904//EN"
 "http://www.w3.org/TR/2001/REC-SVG-20010904/DTD/svg10.dtd">
<svg version="1.0" xmlns="http://www.w3.org/2000/svg"
 width="500.000000pt" height="500.000000pt" viewBox="0 0 500.000000 500.000000"
 preserveAspectRatio="xMidYMid meet">

<g transform="translate(0.000000,500.000000) scale(0.100000,-0.100000)"
fill="#000000" stroke="none">
<path d="M2326 3518 c-7 -13 -46 -122 -86 -243 -40 -121 -76 -230 -81 -243 -8
-21 -13 -18 -71 55 -156 192 -405 341 -656 393 -74 15 -141 21 -235 21 -215 0
-362 -38 -551 -143 -135 -74 -202 -125 -294 -223 -418 -448 -415 -1146 7
-1588 227 -237 510 -359 836 -361 243 0 450 61 655 196 137 90 305 281 385
438 136 267 160 589 66 879 -29 92 -29 93 -8 87 155 -42 490 -126 505 -126 10
0 26 8 34 18 21 23 98 239 97 272 0 14 -62 138 -138 275 l-137 250 -125 32
c-153 39 -184 41 -203 11z m231 -132 c2 -2 0 -25 -5 -52 l-8 -49 -27 52 c-15
29 -27 55 -27 59 0 6 60 -2 67 -10z m-1170 -11 c214 -41 400 -139 548 -289
362 -365 415 -907 130 -1336 -99 -149 -278 -295 -453 -370 -408 -174 -875 -76
-1176 248 -120 129 -207 287 -252 457 -23 86 -27 122 -28 255 -1 131 3 169 22
245 48 190 131 342 259 476 128 134 265 222 433 279 146 50 363 64 517 35z
m1040 -117 c-4 -13 -101 -127 -108 -127 -6 -1 31 125 57 199 4 11 13 3 30 -25
13 -22 23 -43 21 -47z m272 -94 c23 -41 41 -78 41 -80 0 -2 -23 7 -51 22 -48
24 -51 27 -45 56 3 17 6 41 6 54 0 13 2 24 4 24 2 0 23 -34 45 -76z m-165 -95
c21 -38 36 -72 35 -73 -9 -7 -230 -38 -235 -33 -7 6 144 177 156 177 3 0 23
-32 44 -71z m274 -144 c5 -4 -20 -65 -27 -65 -4 0 -19 25 -34 55 l-27 55 43
-21 c23 -12 43 -22 45 -24z m-150 -83 c13 -23 20 -42 15 -42 -13 0 -218 58
-213 61 12 4 156 26 165 24 6 -1 20 -20 33 -43z"/>
<path d="M1010 3266 c-210 -45 -420 -174 -546 -337 -87 -114 -147 -240 -181
-381 -25 -107 -23 -327 5 -429 96 -356 354 -607 712 -693 14 -3 69 -11 122
-16 223 -22 452 43 639 181 261 193 409 535 370 857 -47 383 -304 686 -677
798 -75 22 -112 27 -234 30 -97 2 -167 -1 -210 -10z m348 -112 c296 -60 538
-275 627 -557 95 -299 11 -636 -210 -847 -33 -31 -49 -41 -52 -31 -3 7 -14 22
-24 32 -24 24 -24 32 1 54 11 10 20 23 20 28 0 6 -13 -5 -30 -23 -16 -18 -30
-29 -31 -24 0 5 -2 22 -4 38 -3 23 5 39 36 74 41 47 52 79 23 68 -13 -5 -15
-2 -9 21 13 48 11 58 -12 61 -16 2 -23 10 -23 25 0 12 -5 29 -11 37 -9 13 -10
12 -5 -2 3 -10 0 -18 -6 -18 -9 0 -9 -3 0 -12 19 -19 14 -29 -7 -16 -11 7 -17
16 -15 20 8 12 -11 9 -24 -4 -9 -9 -16 -8 -30 5 -22 20 -48 22 -55 4 -5 -14
-41 -14 -89 -2 -35 9 -35 -4 -1 -29 24 -17 26 -18 20 -2 -4 9 15 -1 42 -24 45
-38 67 -67 58 -76 -2 -2 -11 4 -20 14 -69 76 -66 73 -88 62 -23 -13 -21 -20 8
-25 10 -2 19 -4 21 -5 1 -2 6 -3 11 -4 20 -2 23 -16 7 -31 -8 -9 -20 -24 -25
-33 -9 -15 -13 -15 -33 -4 -21 12 -21 11 2 -9 22 -18 22 -21 5 -18 -20 4 -65
62 -65 85 0 22 30 4 31 -20 1 -16 2 -17 6 -3 3 10 14 17 29 17 13 0 24 5 24
11 0 5 -4 8 -9 5 -15 -10 -112 17 -107 29 2 6 -5 11 -18 11 -14 -1 -22 6 -24
22 -4 27 5 28 31 5 19 -17 20 -17 9 3 -6 11 -9 30 -6 41 6 22 -19 48 -36 38
-6 -4 -4 -12 6 -23 13 -12 14 -17 4 -20 -7 -3 -18 2 -24 11 -10 13 -16 13 -41
3 -17 -7 -36 -20 -44 -29 -7 -10 -19 -17 -26 -17 -17 0 -39 45 -31 65 3 10 2
14 -5 10 -6 -4 -8 4 -4 22 5 26 5 27 -6 6 -7 -13 -20 -23 -30 -23 -10 0 -21
-5 -25 -11 -9 -15 -84 59 -84 83 0 22 0 22 -36 3 -16 -8 -46 -15 -67 -15 -49
0 -97 -44 -97 -89 0 -28 -2 -29 -33 -24 -28 4 -37 1 -55 -22 -30 -37 -28 -52
8 -60 44 -10 38 -30 -9 -30 -39 0 -81 -26 -81 -50 0 -11 42 -33 107 -55 17 -6
35 -21 41 -33 11 -21 11 -21 6 3 -3 14 2 42 11 63 15 36 17 37 65 37 41 0 50
-3 50 -17 0 -10 5 -25 10 -33 7 -11 8 -6 4 16 -8 40 17 53 46 24 11 -11 26
-20 34 -20 8 0 24 -12 36 -27 20 -26 20 -28 4 -40 -24 -18 -9 -16 26 2 17 9
30 20 30 25 0 12 37 14 42 3 3 -8 65 -39 121 -62 19 -7 27 -17 23 -26 -3 -9 0
-12 10 -8 9 3 14 -1 14 -12 0 -12 -5 -15 -20 -10 -11 3 -20 2 -20 -3 0 -5 -18
-22 -41 -37 l-40 -29 -23 27 c-13 15 -28 27 -34 27 -6 0 -12 5 -14 11 -4 12
-68 -48 -68 -63 0 -5 -5 -6 -11 -2 -7 4 -7 -1 1 -16 6 -12 25 -29 41 -38 16
-10 27 -23 24 -30 -3 -7 0 -10 5 -7 5 3 24 -2 42 -11 27 -14 101 -22 211 -24
15 0 6 -30 -12 -40 -27 -14 -81 -13 -81 3 0 9 -3 8 -9 -2 -9 -13 -131 -18
-152 -6 -5 4 -9 21 -10 38 0 18 -3 27 -5 20 -4 -8 -13 -7 -35 5 -32 19 -41 39
-9 22 12 -6 20 -7 20 -1 0 5 -14 12 -31 16 -19 4 -38 19 -50 38 -28 47 -25 60
11 52 24 -5 30 -3 30 10 0 29 -28 83 -49 94 -11 7 -27 24 -35 39 -9 15 -15 22
-16 16 0 -5 6 -19 14 -30 13 -17 12 -21 -8 -39 -12 -11 -27 -28 -32 -38 -9
-16 -14 -14 -59 15 -69 44 -120 37 -151 -23 -12 -24 -13 -34 -3 -45 6 -8 7
-14 2 -14 -14 0 -134 127 -170 180 -45 68 -91 170 -115 257 -28 104 -30 296
-4 398 86 333 344 572 676 628 62 10 218 6 288 -9z m-375 -966 c7 -50 1 -57
-50 -52 -24 2 -49 6 -53 9 -5 3 -11 1 -15 -5 -3 -5 -1 -10 6 -10 7 0 22 -8 33
-17 20 -17 20 -17 7 0 -23 29 -1 19 43 -20 39 -35 74 -83 60 -83 -3 0 -20 15
-37 33 -20 21 -26 25 -19 10 8 -14 9 -24 2 -28 -5 -3 -11 2 -12 12 -2 33 -3
38 -11 50 -9 14 -38 6 -50 -14 -10 -16 -67 -8 -79 11 -16 23 -8 67 17 91 18
19 35 25 67 25 24 0 50 5 58 10 23 15 27 12 33 -22z m32 -26 c-3 -3 -11 0 -18
7 -9 10 -8 11 6 5 10 -3 15 -9 12 -12z m24 -31 c20 -15 23 -24 17 -54 -8 -43
-26 -59 -26 -24 0 13 -9 36 -20 50 -36 46 -18 64 29 28z m85 -6 c3 -8 2 -15
-3 -15 -5 0 -14 7 -21 15 -10 12 -10 15 3 15 8 0 17 -7 21 -15z m448 -55 c14
-10 28 -17 31 -13 4 3 -1 -14 -10 -37 l-17 -43 -14 33 c-7 18 -20 39 -28 47
-14 14 -11 33 5 33 5 0 20 -9 33 -20z m-662 -10 c0 -5 -7 -10 -16 -10 -8 0
-12 5 -9 10 3 6 10 10 16 10 5 0 9 -4 9 -10z m-56 -6 c9 -3 13 -10 11 -15 -7
-11 21 -65 37 -73 7 -3 4 -5 -7 -3 -11 1 -29 20 -42 42 -31 54 -30 61 1 49z
m82 -49 c-8 -33 -39 -32 -54 0 -13 27 -10 30 33 37 24 4 29 -5 21 -37z m-112
-24 c16 -18 15 -19 -16 -25 -22 -4 -37 -2 -47 9 -14 14 -14 17 -1 25 23 15 45
12 64 -9z m345 2 c-8 -10 -21 -24 -31 -30 -10 -8 -14 -21 -11 -33 3 -11 0 -20
-6 -20 -14 0 -6 67 10 86 6 8 20 14 31 14 18 0 19 -2 7 -17z m68 -30 c20 -5
38 -14 41 -22 3 -10 -2 -11 -19 -6 -13 4 -26 12 -28 17 -2 6 -7 4 -12 -3 -8
-12 -10 -12 -18 0 -7 11 -10 9 -16 -8 -3 -11 -10 -21 -15 -21 -18 0 -17 29 3
61 19 31 22 32 25 12 2 -15 13 -24 39 -30z m-197 15 c0 -6 -6 -5 -15 2 -8 7
-15 14 -15 16 0 2 7 1 15 -2 8 -4 15 -11 15 -16z m44 -24 c5 -12 2 -15 -10
-10 -8 3 -18 6 -20 6 -3 0 -2 5 1 10 9 15 22 12 29 -6z m283 -31 c4 -11 -54
-26 -68 -17 -16 9 -10 42 9 47 18 4 54 -13 59 -30z m343 23 c0 -8 -47 -56 -54
-56 -11 0 -7 35 6 48 11 11 48 17 48 8z m-135 -26 c3 -6 -1 -7 -9 -4 -18 7
-21 14 -7 14 6 0 13 -4 16 -10z m-80 -30 c10 -11 24 -20 32 -20 7 0 22 -9 34
-21 18 -18 20 -28 14 -72 -9 -67 -20 -88 -28 -56 -3 13 -19 32 -35 41 -16 10
-35 31 -42 48 -7 17 -15 29 -17 26 -2 -2 3 -18 11 -35 20 -37 20 -42 1 -35 -9
4 -15 0 -15 -10 0 -9 -4 -16 -10 -16 -5 0 -10 -7 -10 -15 0 -25 -26 -17 -72
21 -55 46 -62 65 -41 115 l16 41 58 -4 c31 -1 61 0 65 5 11 11 19 9 39 -13z
m123 2 c2 -7 -2 -10 -12 -6 -9 3 -16 11 -16 16 0 13 23 5 28 -10z m-797 -104
c37 -21 38 -22 22 -41 -10 -10 -32 -25 -50 -32 -40 -17 -41 -27 -7 -54 34 -27
22 -27 -32 0 -57 27 -80 69 -59 109 23 44 68 51 126 18z m538 -54 c14 -18 19
-35 15 -53 -4 -22 -4 -23 6 -8 13 21 49 22 56 2 4 -8 15 -15 26 -15 11 0 22
-8 25 -20 3 -11 9 -20 14 -20 5 0 6 6 3 13 -3 8 6 18 20 25 14 6 32 25 41 41
13 27 42 51 59 51 3 0 6 -8 6 -17 0 -30 -37 -81 -61 -85 -12 -2 -24 -10 -26
-18 -4 -12 -3 -12 5 -2 5 8 18 12 28 10 15 -4 10 -9 -21 -24 -22 -10 -42 -22
-45 -25 -4 -6 -134 -49 -146 -49 -3 0 0 9 6 20 6 10 28 24 50 30 21 6 42 14
44 19 3 5 -11 3 -32 -4 -41 -15 -62 -6 -62 26 0 18 -1 18 -20 -1 -11 -11 -26
-20 -32 -20 -10 0 -10 -2 -1 -8 8 -5 -1 -8 -22 -9 l-35 -1 25 20 c14 11 25 24
23 30 -2 5 -23 18 -47 29 -33 15 -41 16 -31 4 7 -8 18 -15 25 -15 7 0 0 -13
-15 -30 -31 -34 -57 -37 -100 -15 -36 19 -38 33 -6 41 14 3 27 12 30 20 3 8
15 14 26 14 11 0 19 4 18 10 -2 5 11 21 27 34 42 35 97 35 124 0z m-464 5 c4
-5 18 -14 31 -19 33 -13 30 -35 -6 -50 -17 -7 -29 -15 -26 -17 2 -2 18 3 36
12 18 9 33 15 35 13 18 -22 23 -49 14 -77 -14 -40 -36 -40 -114 -1 -33 17 -53
29 -45 27 8 -2 24 4 34 14 13 13 15 19 6 19 -7 0 -19 8 -26 18 -12 15 -13 15
-8 -5 5 -18 3 -21 -15 -16 -11 3 -26 11 -32 19 -9 11 -7 14 12 14 19 0 21 2 9
10 -11 7 -12 10 -2 10 8 0 25 9 39 20 29 22 48 25 58 9z m399 -103 c-4 -11
-45 -36 -59 -36 -13 0 11 33 29 40 30 12 36 12 30 -4z m73 -42 c-9 -9 -28 6
-21 18 4 6 10 6 17 -1 6 -6 8 -13 4 -17z"/>
<path d="M962 2973 c-23 -21 -57 -52 -77 -69 -19 -17 -35 -37 -35 -45 1 -8 7
-2 16 13 17 32 62 62 51 34 -19 -45 -16 -47 8 -6 32 55 63 89 90 100 15 7 16
9 4 9 -9 1 -35 -16 -57 -36z"/>
<path d="M1087 3000 c18 -6 34 -14 37 -19 9 -13 -62 -89 -109 -117 -61 -35
-145 -128 -146 -162 l-1 -27 -8 25 -8 25 -1 -25 -2 -25 -14 25 c-8 14 -15 36
-16 50 -1 20 -3 18 -9 -10 -4 -19 -10 -42 -14 -51 -4 -10 -1 -23 8 -31 9 -10
13 -28 11 -47 -2 -17 0 -31 4 -31 9 0 26 -48 23 -62 -3 -13 11 -9 45 11 17 11
45 19 61 19 l30 -1 -57 -53 c-31 -29 -61 -53 -68 -54 -13 0 -35 34 -27 42 9
10 13 48 5 48 -12 0 -21 -37 -21 -82 0 -50 49 -108 91 -108 15 0 46 -9 68 -21
39 -20 61 -19 61 2 0 6 11 25 25 44 14 18 29 50 32 70 6 37 6 37 20 14 8 -13
12 -16 9 -6 -6 21 4 22 29 3 18 -13 18 -14 -5 -21 -28 -9 -59 -43 -59 -65 0
-9 5 -5 13 9 l13 23 16 -38 c9 -22 16 -34 16 -27 1 7 -4 24 -11 38 -13 28 -3
47 13 25 9 -13 10 -13 6 1 -3 9 3 23 14 32 10 9 21 29 25 44 7 29 41 73 56 73
4 0 8 -8 8 -18 0 -10 4 -22 9 -28 5 -5 11 -20 13 -33 1 -14 9 -27 17 -29 11
-4 13 4 7 39 -8 51 -14 59 -26 39 -7 -11 -10 -6 -10 18 0 17 5 32 11 32 11 0
56 50 76 84 12 20 12 20 13 -9 1 -22 5 -14 16 30 8 32 11 66 8 75 -4 8 -6 18
-6 23 1 4 -2 7 -7 7 -5 0 -11 -23 -13 -51 -6 -62 -48 -125 -103 -156 -53 -29
-137 -40 -164 -21 -12 8 -18 18 -15 21 7 7 -11 16 -43 22 -30 6 -29 7 7 15 29
6 24 8 -35 10 -38 1 -74 2 -78 1 -4 -1 -10 6 -13 14 -3 8 -10 12 -15 9 -5 -3
-9 17 -9 44 0 62 36 115 117 170 32 22 80 63 107 91 47 48 51 50 68 34 27 -24
22 -38 -29 -83 -27 -23 -39 -37 -28 -32 26 13 69 53 83 78 12 19 12 19 27 0 8
-11 15 -14 15 -8 0 22 29 12 51 -18 12 -16 29 -32 38 -35 10 -4 6 4 -9 22 -37
41 -52 51 -85 59 -16 3 -38 13 -47 21 -9 8 -32 16 -50 18 -18 2 -46 6 -63 9
-29 6 -29 6 2 -4z m-243 -331 c10 -17 16 -33 13 -35 -9 -10 -60 43 -53 54 11
19 20 14 40 -19z m117 -185 c-34 -31 -60 -59 -57 -61 3 -3 28 18 56 46 28 28
57 51 65 51 8 0 18 0 22 1 19 2 10 -18 -15 -33 -15 -9 -34 -28 -41 -42 -16
-29 -49 -39 -97 -30 l-36 7 39 39 c42 45 90 78 112 78 8 0 -14 -25 -48 -56z
m238 30 c-16 -19 -70 -27 -102 -15 -45 17 -31 26 43 27 56 0 67 -2 59 -12z
m-134 -73 c-2 -58 -38 -121 -70 -121 -28 1 -60 26 -43 34 7 3 -7 4 -32 1 -34
-3 -39 -2 -20 4 23 8 23 9 3 10 -32 2 -53 11 -63 31 -8 15 -6 17 12 12 13 -3
34 -11 48 -19 49 -25 127 -7 150 36 9 18 8 19 -20 11 -36 -10 -37 -4 -8 27 34
36 45 29 43 -26z m107 17 c-7 -7 -17 -5 -32 5 l-22 15 28 4 c31 3 43 -7 26
-24z m-212 -58 c-8 -5 -19 -10 -25 -10 -5 0 -3 5 5 10 8 5 20 10 25 10 6 0 3
-5 -5 -10z"/>
<path d="M1030 2390 c-14 -11 -20 -20 -14 -20 6 0 19 9 29 20 23 25 17 25 -15
0z"/>
<path d="M978 2363 c7 -3 16 -2 19 1 4 3 -2 6 -13 5 -11 0 -14 -3 -6 -6z"/>
<path d="M1236 2877 c-7 -37 -23 -55 -71 -80 -19 -11 -24 -16 -13 -17 40 -1
118 103 95 126 -2 3 -7 -10 -11 -29z"/>
<path d="M1361 2830 c15 -45 24 -54 15 -15 -4 17 -12 34 -17 40 -5 5 -4 -6 2
-25z"/>
<path d="M891 2834 c0 -11 3 -14 6 -6 3 7 2 16 -1 19 -3 4 -6 -2 -5 -13z"/>
<path d="M1037 2798 l-52 -51 50 43 c71 61 70 60 61 60 -4 0 -31 -23 -59 -52z"/>
<path d="M1312 2830 c0 -14 2 -19 5 -12 2 6 2 18 0 25 -3 6 -5 1 -5 -13z"/>
<path d="M832 2805 c-6 -14 -7 -25 -2 -25 5 0 11 -10 13 -22 2 -13 4 -2 4 25
0 26 -1 47 -2 47 -1 0 -7 -11 -13 -25z"/>
<path d="M881 2794 c0 -11 3 -14 6 -6 3 7 2 16 -1 19 -3 4 -6 -2 -5 -13z"/>
<path d="M1291 2773 c-10 -26 -10 -27 4 -9 8 11 15 23 15 28 0 15 -7 8 -19
-19z"/>
<path d="M1108 2773 c7 -3 16 -2 19 1 4 3 -2 6 -13 5 -11 0 -14 -3 -6 -6z"/>
<path d="M1050 2760 c-13 -9 -13 -10 0 -10 8 0 22 5 30 10 13 9 13 10 0 10 -8
0 -22 -5 -30 -10z"/>
<path d="M945 2693 l-39 -48 49 44 c28 25 52 46 54 48 2 2 -2 3 -10 3 -8 0
-32 -21 -54 -47z"/>
<path d="M1257 2720 c-22 -31 -65 -61 -126 -87 -31 -13 -42 -21 -26 -18 46 10
126 58 153 93 14 18 22 32 19 32 -3 0 -12 -9 -20 -20z"/>
<path d="M1393 2658 c-1 -29 -14 -74 -38 -132 -6 -13 -5 -17 2 -13 7 5 9 0 6
-14 -4 -16 -8 -17 -14 -7 -5 7 -9 9 -10 3 0 -5 -5 -1 -10 10 -7 14 -8 3 -5
-38 4 -49 2 -59 -15 -67 -14 -8 -19 -7 -19 2 0 9 -3 9 -10 -2 -11 -18 -14 -51
-2 -34 10 14 87 61 79 47 -3 -5 -1 -24 5 -40 10 -27 8 -38 -15 -84 l-26 -54
30 34 31 33 29 -33 c34 -38 34 -36 -5 45 -38 78 -38 109 1 182 39 71 40 94 10
152 l-23 43 -1 -33z m27 -37 c10 -19 9 -22 -1 -16 -9 6 -11 -1 -6 -30 4 -24 1
-48 -9 -66 -16 -31 -31 -40 -19 -11 8 19 18 94 17 130 0 26 1 26 18 -7z"/>
<path d="M1336 2555 c-9 -26 -7 -32 5 -12 6 10 9 21 6 23 -2 3 -7 -2 -11 -11z"/>
<path d="M1157 2330 c3 -25 9 -52 14 -60 10 -18 -1 57 -12 85 -5 12 -6 2 -2
-25z"/>
<path d="M1040 2309 c0 -5 5 -7 10 -4 6 3 10 8 10 11 0 2 -4 4 -10 4 -5 0 -10
-5 -10 -11z"/>
<path d="M1142 2285 c0 -16 2 -22 5 -12 2 9 2 23 0 30 -3 6 -5 -1 -5 -18z"/>
<path d="M1027 2252 l-17 -37 20 24 c11 13 20 29 20 37 0 21 -3 17 -23 -24z"/>
<path d="M1155 2179 c-4 -6 -5 -12 -2 -15 2 -3 7 2 10 11 7 17 1 20 -8 4z"/>
<path d="M1370 2186 c0 -2 14 -6 30 -8 17 -3 30 -1 30 4 0 4 -13 8 -30 8 -16
0 -30 -2 -30 -4z"/>
<path d="M1440 2179 c0 -3 36 -6 79 -5 66 1 83 -2 103 -19 13 -11 11 -7 -5 8
-27 27 -33 28 -103 25 -41 -2 -74 -6 -74 -9z"/>
<path d="M1688 1862 c-16 -9 -28 -20 -28 -25 0 -5 12 1 26 12 29 23 49 28 38
9 -4 -7 -3 -8 4 -4 16 10 15 26 0 26 -7 0 -25 -8 -40 -18z"/>
<path d="M1131 1844 c0 -11 3 -14 6 -6 3 7 2 16 -1 19 -3 4 -6 -2 -5 -13z"/>
<path d="M3005 2627 c-16 -11 -36 -12 -99 -4 -109 15 -268 -3 -345 -38 -97
-45 -151 -111 -151 -185 0 -50 29 -83 89 -101 35 -10 46 -10 82 6 22 10 47 31
55 46 21 42 17 59 -6 22 -21 -34 -66 -63 -100 -63 -35 0 -79 29 -86 55 -21 83
78 184 216 221 66 17 281 26 295 12 4 -4 -10 -29 -32 -55 -57 -69 -91 -122
-167 -263 -37 -69 -80 -141 -96 -160 l-28 -35 -70 34 c-105 51 -192 41 -208
-24 -21 -86 137 -125 249 -62 43 23 43 23 95 6 98 -33 192 -44 261 -29 200 42
259 214 101 293 -51 26 -52 26 -24 32 69 16 95 28 124 61 61 70 25 148 -87
190 -60 22 -58 21 -43 39 15 19 1 20 -25 2z m105 -87 c81 -75 -23 -201 -154
-187 -53 5 -89 -4 -67 -17 6 -4 39 -16 73 -28 81 -26 114 -50 128 -93 10 -30
9 -41 -10 -79 -38 -79 -130 -123 -234 -112 -59 7 -176 35 -176 42 0 2 20 30
44 61 25 32 94 139 153 238 60 99 115 189 123 201 12 19 17 20 52 11 21 -5 52
-22 68 -37z m-550 -443 l55 -24 -34 -21 c-76 -46 -173 -35 -179 21 -8 64 51
73 158 24z"/>
<path d="M3859 2503 c-8 -10 -35 -60 -59 -111 l-45 -93 -35 6 c-25 4 -47 -1
-80 -17 -45 -23 -54 -34 -142 -178 -26 -42 -44 -60 -58 -60 -35 0 -33 24 9
126 23 53 41 101 41 106 0 4 -14 8 -31 8 -17 0 -28 -4 -24 -10 16 -26 -95
-230 -125 -230 -20 0 -9 58 25 129 47 98 46 101 -17 101 -29 0 -48 4 -42 8 35
23 40 97 7 90 -10 -2 -26 -34 -43 -89 -15 -48 -44 -117 -64 -154 -20 -37 -35
-70 -32 -72 7 -7 57 76 82 137 24 59 38 69 69 46 19 -13 18 -15 -13 -74 -18
-33 -32 -70 -32 -82 0 -60 49 -79 90 -35 29 31 33 31 45 3 17 -39 60 -36 101
7 27 30 34 33 34 17 0 -10 9 -27 20 -37 26 -24 60 -14 99 30 27 31 31 33 31
15 0 -66 51 -79 102 -26 l32 34 15 -32 c13 -25 23 -32 53 -34 20 -2 51 4 67
13 31 15 91 105 91 135 0 8 -13 -7 -29 -35 -48 -83 -105 -120 -136 -88 -16 15
-20 61 -7 79 4 5 28 18 54 28 57 21 98 66 98 107 0 38 -34 47 -85 23 -42 -20
-71 -55 -113 -139 -50 -99 -102 -138 -102 -76 0 29 109 259 174 366 20 33 36
63 36 68 0 14 -47 7 -61 -10z m-119 -224 c0 -22 -96 -172 -128 -200 -37 -33
-52 -30 -52 8 0 41 40 110 92 159 44 41 88 58 88 33z m250 -13 c0 -30 -48 -80
-90 -94 -36 -13 -37 -10 -8 31 56 82 98 109 98 63z"/>
<path d="M4433 2460 c-35 -21 -93 -94 -93 -118 0 -8 15 8 33 34 34 52 85 85
117 77 58 -15 9 -114 -121 -245 -53 -54 -103 -98 -111 -98 -8 0 -29 -18 -47
-40 -35 -44 -33 -48 9 -23 27 15 31 15 84 -7 32 -12 66 -20 78 -17 24 7 112
87 103 95 -2 3 -16 -6 -30 -20 -14 -14 -34 -28 -44 -31 -20 -5 -111 30 -111
43 0 4 38 40 85 80 83 71 151 143 174 187 40 78 -44 133 -126 83z"/>
<path d="M4870 2471 c-23 -9 -181 -143 -175 -149 2 -3 30 15 62 38 l57 44 -26
-45 c-57 -98 -178 -318 -178 -323 0 -3 9 -6 20 -6 13 0 29 15 46 43 56 95 214
392 212 398 -2 3 -10 4 -18 0z"/>
<path d="M3470 2375 c-16 -20 -6 -45 19 -45 26 0 45 32 29 48 -16 16 -33 15
-48 -3z"/>
</g>
</svg>
